<svg width="32" height="32" viewBox="0 0 48 48" xmlns="http://www.w3.org/2000/svg">
    <g fill="none" fill-rule="evenodd">
        <path d="M42.3 14.4H35.6V12.6h11.1V2.3h-2.2V0H26.4v2.2h-2.2v14.4h-2.2v2.2h-3.3v2.2h-3.3v2.2H13.2v2.2H9.1v-2.2H7v-2.2H4.7v-4.4H2.2v13.6h2.2v2.2h2.2v2.2h2.2v2.2h2.2v2.2h2.2v8.9h4.8v-2.2h-2.2v-1.9h2.2v-2.2h2.2v-2.2h1.8v2.2h2.2v6.6h4.8v-2.5h-2.2v-8.5h2.2v-2.2h2.2v-3.3h2.2v-7.7h1.8v2.2h2.6v-4.8h-4.4v-4.1h8.8z" fill="#666"/>
        <path d="M28.6 3.2h2.7v2.7h-2.7z" fill="#fff"/>
    </g>
</svg>
